<svg width="2600px" height="731px"
 viewBox="0.00 0.00 1872.07 526.00" xmlns="http://www.w3.org/2000/svg" xmlns:xlink="http://www.w3.org/1999/xlink">
<g id="graph0" class="graph" transform="scale(1.0007919936640506 1.0007919936640506) rotate(0.0) translate(4.0 522.0)">
<polygon fill="white" stroke="transparent" points="-4,4 -4,-522 1868.07,-522 1868.07,4 -4,4"/>
<text text-anchor="middle" x="932.04" y="-482.5" font-family="Times,serif" font-size="35.00">Rick and Morty Compose</text>
<!-- : -->
<g id="node1" class="node">
<title>:</title>
<polygon fill="#bdbdbd" stroke="black" points="65,-468 11,-468 11,-432 65,-432 65,-468"/>
<text text-anchor="middle" x="38" y="-445.8" font-family="Times,serif" font-size="14.00">:</text>
</g>
<!-- :graphql -->
<g id="node2" class="node">
<title>:graphql</title>
<ellipse fill="#66bb6a" stroke="black" cx="271" cy="-162" rx="43.44" ry="18"/>
<text text-anchor="middle" x="271" y="-157.8" font-family="Times,serif" font-size="14.00">:graphql</text>
</g>
<!-- :&#45;&gt;:graphql -->
<g id="edge1" class="edge">
<title>:&#45;&gt;:graphql</title>
<path fill="none" stroke="black" d="M38.6,-431.84C39.92,-413.07 44.08,-382.64 57,-360 102.59,-280.1 191.65,-214.16 239.24,-182.77"/>
<polygon fill="black" stroke="black" points="241.15,-185.71 247.62,-177.32 237.33,-179.84 241.15,-185.71"/>
</g>
<!-- :apollo -->
<g id="node3" class="node">
<title>:apollo</title>
<ellipse fill="#66bb6a" stroke="black" cx="274" cy="-90" rx="37.72" ry="18"/>
<text text-anchor="middle" x="274" y="-85.8" font-family="Times,serif" font-size="14.00">:apollo</text>
</g>
<!-- :graphql&#45;&gt;:apollo -->
<g id="edge2" class="edge">
<title>:graphql&#45;&gt;:apollo</title>
<path fill="none" stroke="black" d="M271.74,-143.7C272.07,-135.98 272.47,-126.71 272.84,-118.11"/>
<polygon fill="black" stroke="black" points="276.34,-118.25 273.27,-108.1 269.34,-117.95 276.34,-118.25"/>
</g>
<!-- :common&#45;util -->
<g id="node4" class="node">
<title>:common&#45;util</title>
<ellipse fill="#66bb6a" stroke="black" cx="847" cy="-18" rx="63.72" ry="18"/>
<text text-anchor="middle" x="847" y="-13.8" font-family="Times,serif" font-size="14.00">:common&#45;util</text>
</g>
<!-- :apollo&#45;&gt;:common&#45;util -->
<g id="edge3" class="edge">
<title>:apollo&#45;&gt;:common&#45;util</title>
<path fill="none" stroke="black" stroke-dasharray="1,5" d="M303.42,-78.55C311.32,-76.07 319.91,-73.67 328,-72 484.94,-39.63 672.85,-26.69 773.96,-21.78"/>
<polygon fill="black" stroke="black" points="774.24,-25.27 784.06,-21.3 773.91,-18.28 774.24,-25.27"/>
</g>
<!-- :app -->
<g id="node5" class="node">
<title>:app</title>
<polygon fill="#66bb6a" stroke="black" points="1031,-468 977,-468 977,-432 1031,-432 1031,-468"/>
<text text-anchor="middle" x="1004" y="-445.8" font-family="Times,serif" font-size="14.00">:app</text>
</g>
<!-- :app&#45;&gt;:common&#45;util -->
<g id="edge4" class="edge">
<title>:app&#45;&gt;:common&#45;util</title>
<path fill="none" stroke="black" stroke-dasharray="1,5" d="M976.86,-448.94C830.43,-448.43 138.32,-443.49 57,-396 16.44,-372.31 0,-353.97 0,-307 0,-307 0,-307 0,-161 0,-105.68 36.79,-95.22 87,-72 148.31,-43.64 595.72,-26.79 773.99,-21.14"/>
<polygon fill="black" stroke="black" points="774.18,-24.64 784.06,-20.83 773.96,-17.64 774.18,-24.64"/>
</g>
<!-- :common&#45;ui -->
<g id="node6" class="node">
<title>:common&#45;ui</title>
<ellipse fill="#66bb6a" stroke="black" cx="1047" cy="-162" rx="58.49" ry="18"/>
<text text-anchor="middle" x="1047" y="-157.8" font-family="Times,serif" font-size="14.00">:common&#45;ui</text>
</g>
<!-- :app&#45;&gt;:common&#45;ui -->
<g id="edge5" class="edge">
<title>:app&#45;&gt;:common&#45;ui</title>
<path fill="none" stroke="black" stroke-dasharray="1,5" d="M1031.07,-433.25C1047.48,-423.28 1068.54,-409.72 1086,-396 1104.29,-381.62 1104.84,-373.19 1124,-360 1154.45,-339.03 1179.31,-355.29 1199,-324 1225.6,-281.73 1203.2,-251.42 1168,-216 1149.75,-197.64 1124.07,-185.16 1101.06,-176.96"/>
<polygon fill="black" stroke="black" points="1101.99,-173.58 1091.39,-173.7 1099.75,-180.21 1101.99,-173.58"/>
</g>
<!-- :domain -->
<g id="node7" class="node">
<title>:domain</title>
<ellipse fill="#66bb6a" stroke="black" cx="489" cy="-234" rx="42.88" ry="18"/>
<text text-anchor="middle" x="489" y="-229.8" font-family="Times,serif" font-size="14.00">:domain</text>
</g>
<!-- :app&#45;&gt;:domain -->
<g id="edge6" class="edge">
<title>:app&#45;&gt;:domain</title>
<path fill="none" stroke="black" stroke-dasharray="1,5" d="M976.85,-448.46C862.93,-445.55 425.87,-427.66 350,-324 340.55,-311.09 340.92,-301.18 350,-288 355.81,-279.57 407.75,-261.25 446.44,-248.53"/>
<polygon fill="black" stroke="black" points="447.54,-251.85 455.96,-245.42 445.37,-245.19 447.54,-251.85"/>
</g>
<!-- :snackbar -->
<g id="node9" class="node">
<title>:snackbar</title>
<ellipse fill="#66bb6a" stroke="black" cx="734" cy="-234" rx="48.07" ry="18"/>
<text text-anchor="middle" x="734" y="-229.8" font-family="Times,serif" font-size="14.00">:snackbar</text>
</g>
<!-- :app&#45;&gt;:snackbar -->
<g id="edge7" class="edge">
<title>:app&#45;&gt;:snackbar</title>
<path fill="none" stroke="black" stroke-dasharray="1,5" d="M976.72,-447.59C888.15,-442.73 612.87,-425.37 587,-396 562.81,-368.54 608.48,-295.82 616,-288 634.59,-268.66 661.52,-255.83 684.96,-247.65"/>
<polygon fill="black" stroke="black" points="686.36,-250.87 694.76,-244.42 684.16,-244.23 686.36,-250.87"/>
</g>
<!-- :drawer -->
<g id="node10" class="node">
<title>:drawer</title>
<ellipse fill="#66bb6a" stroke="black" cx="1533" cy="-306" rx="40.55" ry="18"/>
<text text-anchor="middle" x="1533" y="-301.8" font-family="Times,serif" font-size="14.00">:drawer</text>
</g>
<!-- :app&#45;&gt;:drawer -->
<g id="edge8" class="edge">
<title>:app&#45;&gt;:drawer</title>
<path fill="none" stroke="black" stroke-dasharray="1,5" d="M1031.11,-434.86C1034.05,-433.73 1037.05,-432.74 1040,-432 1114.77,-413.18 1679.91,-451.92 1733,-396 1781.3,-345.13 1655.99,-321.35 1582.3,-312.04"/>
<polygon fill="black" stroke="black" points="1582.62,-308.55 1572.27,-310.82 1581.78,-315.5 1582.62,-308.55"/>
</g>
<!-- :theme&#45;controller -->
<g id="node12" class="node">
<title>:theme&#45;controller</title>
<ellipse fill="#66bb6a" stroke="black" cx="1786" cy="-234" rx="78.14" ry="18"/>
<text text-anchor="middle" x="1786" y="-229.8" font-family="Times,serif" font-size="14.00">:theme&#45;controller</text>
</g>
<!-- :app&#45;&gt;:theme&#45;controller -->
<g id="edge9" class="edge">
<title>:app&#45;&gt;:theme&#45;controller</title>
<path fill="none" stroke="black" stroke-dasharray="1,5" d="M1031.11,-434.86C1034.05,-433.73 1037.05,-432.74 1040,-432 1116.83,-412.72 1691.75,-447.43 1752,-396 1790.46,-363.17 1791.99,-298.75 1789.27,-262.14"/>
<polygon fill="black" stroke="black" points="1792.76,-261.81 1788.37,-252.16 1785.78,-262.44 1792.76,-261.81"/>
</g>
<!-- :character&#45;all -->
<g id="node14" class="node">
<title>:character&#45;all</title>
<ellipse fill="#66bb6a" stroke="black" cx="128" cy="-378" rx="61.93" ry="18"/>
<text text-anchor="middle" x="128" y="-373.8" font-family="Times,serif" font-size="14.00">:character&#45;all</text>
</g>
<!-- :app&#45;&gt;:character&#45;all -->
<g id="edge10" class="edge">
<title>:app&#45;&gt;:character&#45;all</title>
<path fill="none" stroke="black" stroke-dasharray="1,5" d="M976.72,-448.87C874.08,-448.04 501.58,-441.85 199,-396 193.52,-395.17 187.84,-394.13 182.18,-392.97"/>
<polygon fill="black" stroke="black" points="182.6,-389.48 172.09,-390.78 181.12,-396.32 182.6,-389.48"/>
</g>
<!-- :character&#45;details -->
<g id="node16" class="node">
<title>:character&#45;details</title>
<ellipse fill="#66bb6a" stroke="black" cx="674" cy="-378" rx="77.54" ry="18"/>
<text text-anchor="middle" x="674" y="-373.8" font-family="Times,serif" font-size="14.00">:character&#45;details</text>
</g>
<!-- :app&#45;&gt;:character&#45;details -->
<g id="edge11" class="edge">
<title>:app&#45;&gt;:character&#45;details</title>
<path fill="none" stroke="black" stroke-dasharray="1,5" d="M976.99,-443.27C925.46,-432.34 811.79,-408.23 739.27,-392.84"/>
<polygon fill="black" stroke="black" points="739.83,-389.39 729.32,-390.73 738.37,-396.23 739.83,-389.39"/>
</g>
<!-- :character&#45;favorite -->
<g id="node20" class="node">
<title>:character&#45;favorite</title>
<ellipse fill="#66bb6a" stroke="black" cx="290" cy="-378" rx="82.18" ry="18"/>
<text text-anchor="middle" x="290" y="-373.8" font-family="Times,serif" font-size="14.00">:character&#45;favorite</text>
</g>
<!-- :app&#45;&gt;:character&#45;favorite -->
<g id="edge12" class="edge">
<title>:app&#45;&gt;:character&#45;favorite</title>
<path fill="none" stroke="black" stroke-dasharray="1,5" d="M976.8,-447.54C890.23,-442.71 613.42,-425.83 386,-396 377.46,-394.88 368.53,-393.53 359.7,-392.1"/>
<polygon fill="black" stroke="black" points="360.23,-388.64 349.79,-390.44 359.07,-395.54 360.23,-388.64"/>
</g>
<!-- :episode&#45;all -->
<g id="node21" class="node">
<title>:episode&#45;all</title>
<ellipse fill="#66bb6a" stroke="black" cx="1189" cy="-378" rx="56.17" ry="18"/>
<text text-anchor="middle" x="1189" y="-373.8" font-family="Times,serif" font-size="14.00">:episode&#45;all</text>
</g>
<!-- :app&#45;&gt;:episode&#45;all -->
<g id="edge13" class="edge">
<title>:app&#45;&gt;:episode&#45;all</title>
<path fill="none" stroke="black" stroke-dasharray="1,5" d="M1031.39,-435.72C1034.28,-434.42 1037.19,-433.16 1040,-432 1073.4,-418.21 1111.85,-404.59 1141.32,-394.61"/>
<polygon fill="black" stroke="black" points="1142.58,-397.88 1150.95,-391.37 1140.35,-391.24 1142.58,-397.88"/>
</g>
<!-- :episode&#45;details -->
<g id="node22" class="node">
<title>:episode&#45;details</title>
<ellipse fill="#66bb6a" stroke="black" cx="841" cy="-378" rx="71.78" ry="18"/>
<text text-anchor="middle" x="841" y="-373.8" font-family="Times,serif" font-size="14.00">:episode&#45;details</text>
</g>
<!-- :app&#45;&gt;:episode&#45;details -->
<g id="edge14" class="edge">
<title>:app&#45;&gt;:episode&#45;details</title>
<path fill="none" stroke="black" stroke-dasharray="1,5" d="M976.72,-437.28C951.72,-426.55 914.27,-410.47 885.04,-397.91"/>
<polygon fill="black" stroke="black" points="886.04,-394.53 875.47,-393.8 883.28,-400.96 886.04,-394.53"/>
</g>
<!-- :episode&#45;favorite -->
<g id="node23" class="node">
<title>:episode&#45;favorite</title>
<ellipse fill="#66bb6a" stroke="black" cx="1340" cy="-378" rx="76.42" ry="18"/>
<text text-anchor="middle" x="1340" y="-373.8" font-family="Times,serif" font-size="14.00">:episode&#45;favorite</text>
</g>
<!-- :app&#45;&gt;:episode&#45;favorite -->
<g id="edge15" class="edge">
<title>:app&#45;&gt;:episode&#45;favorite</title>
<path fill="none" stroke="black" stroke-dasharray="1,5" d="M1031.21,-435.21C1034.13,-434.01 1037.1,-432.91 1040,-432 1132.03,-403.14 1159.13,-413.35 1254,-396 1260.54,-394.8 1267.35,-393.52 1274.15,-392.22"/>
<polygon fill="black" stroke="black" points="1274.92,-395.63 1284.07,-390.3 1273.59,-388.76 1274.92,-395.63"/>
</g>
<!-- :location&#45;all -->
<g id="node24" class="node">
<title>:location&#45;all</title>
<ellipse fill="#66bb6a" stroke="black" cx="1492" cy="-378" rx="57.9" ry="18"/>
<text text-anchor="middle" x="1492" y="-373.8" font-family="Times,serif" font-size="14.00">:location&#45;all</text>
</g>
<!-- :app&#45;&gt;:location&#45;all -->
<g id="edge16" class="edge">
<title>:app&#45;&gt;:location&#45;all</title>
<path fill="none" stroke="black" stroke-dasharray="1,5" d="M1031.14,-434.99C1034.08,-433.83 1037.07,-432.8 1040,-432 1205.76,-386.62 1255.64,-425.22 1425,-396 1430.04,-395.13 1435.27,-394.08 1440.47,-392.93"/>
<polygon fill="black" stroke="black" points="1441.45,-396.29 1450.4,-390.62 1439.87,-389.48 1441.45,-396.29"/>
</g>
<!-- :location&#45;details -->
<g id="node25" class="node">
<title>:location&#45;details</title>
<ellipse fill="#66bb6a" stroke="black" cx="1004" cy="-378" rx="73.01" ry="18"/>
<text text-anchor="middle" x="1004" y="-373.8" font-family="Times,serif" font-size="14.00">:location&#45;details</text>
</g>
<!-- :app&#45;&gt;:location&#45;details -->
<g id="edge17" class="edge">
<title>:app&#45;&gt;:location&#45;details</title>
<path fill="none" stroke="black" stroke-dasharray="1,5" d="M1004,-431.7C1004,-423.98 1004,-414.71 1004,-406.11"/>
<polygon fill="black" stroke="black" points="1007.5,-406.1 1004,-396.1 1000.5,-406.1 1007.5,-406.1"/>
</g>
<!-- :location&#45;favorite -->
<g id="node26" class="node">
<title>:location&#45;favorite</title>
<ellipse fill="#66bb6a" stroke="black" cx="1646" cy="-378" rx="78.14" ry="18"/>
<text text-anchor="middle" x="1646" y="-373.8" font-family="Times,serif" font-size="14.00">:location&#45;favorite</text>
</g>
<!-- :app&#45;&gt;:location&#45;favorite -->
<g id="edge18" class="edge">
<title>:app&#45;&gt;:location&#45;favorite</title>
<path fill="none" stroke="black" stroke-dasharray="1,5" d="M1031.12,-434.91C1034.06,-433.77 1037.06,-432.77 1040,-432 1263.73,-373.63 1329.76,-426.23 1559,-396 1566.13,-395.06 1573.56,-393.9 1580.94,-392.62"/>
<polygon fill="black" stroke="black" points="1581.72,-396.04 1590.94,-390.83 1580.48,-389.15 1581.72,-396.04"/>
</g>
<!-- :domain&#45;&gt;:graphql -->
<g id="edge19" class="edge">
<title>:domain&#45;&gt;:graphql</title>
<path fill="none" stroke="black" d="M455.89,-222.37C417.85,-210.15 355.32,-190.07 313.66,-176.7"/>
<polygon fill="black" stroke="black" points="314.65,-173.34 304.06,-173.62 312.51,-180.01 314.65,-173.34"/>
</g>
<!-- :domain&#45;&gt;:common&#45;util -->
<g id="edge21" class="edge">
<title>:domain&#45;&gt;:common&#45;util</title>
<path fill="none" stroke="black" stroke-dasharray="1,5" d="M488.03,-215.79C487.87,-196.12 490.62,-164.06 508,-144 576.3,-65.17 698.9,-36.01 776.44,-25.25"/>
<polygon fill="black" stroke="black" points="777.15,-28.69 786.61,-23.91 776.23,-21.75 777.15,-28.69"/>
</g>
<!-- :room -->
<g id="node8" class="node">
<title>:room</title>
<ellipse fill="#66bb6a" stroke="black" cx="551" cy="-162" rx="34.21" ry="18"/>
<text text-anchor="middle" x="551" y="-157.8" font-family="Times,serif" font-size="14.00">:room</text>
</g>
<!-- :domain&#45;&gt;:room -->
<g id="edge20" class="edge">
<title>:domain&#45;&gt;:room</title>
<path fill="none" stroke="black" d="M503.38,-216.76C511.4,-207.71 521.52,-196.29 530.37,-186.3"/>
<polygon fill="black" stroke="black" points="533.11,-188.47 537.12,-178.67 527.87,-183.83 533.11,-188.47"/>
</g>
<!-- :snackbar&#45;&gt;:common&#45;util -->
<g id="edge22" class="edge">
<title>:snackbar&#45;&gt;:common&#45;util</title>
<path fill="none" stroke="black" stroke-dasharray="1,5" d="M738.14,-215.99C746.09,-185.44 765.44,-120.01 796,-72 802.68,-61.5 811.67,-51.32 820.23,-42.73"/>
<polygon fill="black" stroke="black" points="822.83,-45.09 827.59,-35.62 817.96,-40.05 822.83,-45.09"/>
</g>
<!-- :snackbar&#45;&gt;:common&#45;ui -->
<g id="edge23" class="edge">
<title>:snackbar&#45;&gt;:common&#45;ui</title>
<path fill="none" stroke="black" stroke-dasharray="1,5" d="M774.28,-223.99C829.49,-211.64 928.91,-189.41 991.24,-175.47"/>
<polygon fill="black" stroke="black" points="992.3,-178.82 1001.29,-173.22 990.77,-171.99 992.3,-178.82"/>
</g>
<!-- :drawer&#45;&gt;:common&#45;util -->
<g id="edge25" class="edge">
<title>:drawer&#45;&gt;:common&#45;util</title>
<path fill="none" stroke="black" stroke-dasharray="1,5" d="M1532.2,-287.99C1529.09,-243.43 1513.9,-123.27 1440,-72 1398.17,-42.98 1069.49,-27.24 920.26,-21.52"/>
<polygon fill="black" stroke="black" points="919.96,-18.01 909.83,-21.13 919.69,-25 919.96,-18.01"/>
</g>
<!-- :drawer&#45;&gt;:common&#45;ui -->
<g id="edge26" class="edge">
<title>:drawer&#45;&gt;:common&#45;ui</title>
<path fill="none" stroke="black" stroke-dasharray="1,5" d="M1527.62,-287.99C1520.09,-267.24 1504.31,-232.85 1478,-216 1419.41,-178.46 1221.2,-167.5 1115.2,-164.31"/>
<polygon fill="black" stroke="black" points="1115.02,-160.8 1104.93,-164.01 1114.82,-167.8 1115.02,-160.8"/>
</g>
<!-- :navigation -->
<g id="node11" class="node">
<title>:navigation</title>
<ellipse fill="#66bb6a" stroke="black" cx="1006" cy="-234" rx="54.47" ry="18"/>
<text text-anchor="middle" x="1006" y="-229.8" font-family="Times,serif" font-size="14.00">:navigation</text>
</g>
<!-- :drawer&#45;&gt;:navigation -->
<g id="edge24" class="edge">
<title>:drawer&#45;&gt;:navigation</title>
<path fill="none" stroke="black" d="M1494.67,-299.91C1403.81,-287.84 1174.77,-257.42 1065.62,-242.92"/>
<polygon fill="black" stroke="black" points="1065.82,-239.41 1055.44,-241.57 1064.89,-246.35 1065.82,-239.41"/>
</g>
<!-- :navigation&#45;&gt;:common&#45;util -->
<g id="edge27" class="edge">
<title>:navigation&#45;&gt;:common&#45;util</title>
<path fill="none" stroke="black" stroke-dasharray="1,5" d="M993.52,-216.21C965.66,-178.7 898.25,-87.97 865.49,-43.88"/>
<polygon fill="black" stroke="black" points="868.19,-41.65 859.42,-35.71 862.57,-45.83 868.19,-41.65"/>
</g>
<!-- :navigation&#45;&gt;:common&#45;ui -->
<g id="edge28" class="edge">
<title>:navigation&#45;&gt;:common&#45;ui</title>
<path fill="none" stroke="black" stroke-dasharray="1,5" d="M1015.92,-216.05C1020.76,-207.8 1026.67,-197.7 1032.04,-188.54"/>
<polygon fill="black" stroke="black" points="1035.13,-190.19 1037.17,-179.79 1029.09,-186.65 1035.13,-190.19"/>
</g>
<!-- :theme&#45;controller&#45;&gt;:common&#45;util -->
<g id="edge30" class="edge">
<title>:theme&#45;controller&#45;&gt;:common&#45;util</title>
<path fill="none" stroke="black" stroke-dasharray="1,5" d="M1781.76,-215.84C1772.28,-181.59 1745.86,-105.21 1692,-72 1627.24,-32.07 1114.51,-22.06 920.78,-19.69"/>
<polygon fill="black" stroke="black" points="920.73,-16.19 910.69,-19.57 920.65,-23.19 920.73,-16.19"/>
</g>
<!-- :theme&#45;controller&#45;&gt;:common&#45;ui -->
<g id="edge31" class="edge">
<title>:theme&#45;controller&#45;&gt;:common&#45;ui</title>
<path fill="none" stroke="black" stroke-dasharray="1,5" d="M1715.14,-226.29C1571.87,-212.72 1249.7,-182.2 1111.72,-169.13"/>
<polygon fill="black" stroke="black" points="1111.99,-165.64 1101.71,-168.18 1111.33,-172.61 1111.99,-165.64"/>
</g>
<!-- :data&#45;store -->
<g id="node13" class="node">
<title>:data&#45;store</title>
<ellipse fill="#66bb6a" stroke="black" cx="1796" cy="-90" rx="51.58" ry="18"/>
<text text-anchor="middle" x="1796" y="-85.8" font-family="Times,serif" font-size="14.00">:data&#45;store</text>
</g>
<!-- :theme&#45;controller&#45;&gt;:data&#45;store -->
<g id="edge29" class="edge">
<title>:theme&#45;controller&#45;&gt;:data&#45;store</title>
<path fill="none" stroke="black" d="M1787.21,-215.87C1788.91,-191.67 1792.04,-147.21 1794.07,-118.39"/>
<polygon fill="black" stroke="black" points="1797.58,-118.41 1794.79,-108.19 1790.6,-117.92 1797.58,-118.41"/>
</g>
<!-- :data&#45;store&#45;&gt;:common&#45;util -->
<g id="edge32" class="edge">
<title>:data&#45;store&#45;&gt;:common&#45;util</title>
<path fill="none" stroke="black" stroke-dasharray="1,5" d="M1757.52,-77.77C1748.56,-75.52 1739,-73.42 1730,-72 1432.66,-25.23 1073.03,-19.01 920.78,-18.66"/>
<polygon fill="black" stroke="black" points="920.63,-15.16 910.62,-18.65 920.62,-22.16 920.63,-15.16"/>
</g>
<!-- :character&#45;all&#45;&gt;:common&#45;util -->
<g id="edge33" class="edge">
<title>:character&#45;all&#45;&gt;:common&#45;util</title>
<path fill="none" stroke="black" stroke-dasharray="1,5" d="M117.48,-360.24C102.28,-334.4 76,-282.78 76,-235 76,-235 76,-235 76,-161 76,-114.27 91.95,-96.09 132,-72 186.03,-39.5 602.4,-25.24 773.73,-20.71"/>
<polygon fill="black" stroke="black" points="774.01,-24.21 783.91,-20.45 773.83,-17.21 774.01,-24.21"/>
</g>
<!-- :character&#45;all&#45;&gt;:common&#45;ui -->
<g id="edge34" class="edge">
<title>:character&#45;all&#45;&gt;:common&#45;ui</title>
<path fill="none" stroke="black" stroke-dasharray="1,5" d="M145.38,-360.72C182.91,-326.7 275.8,-248.54 370,-216 481.07,-177.64 829.65,-166.88 978.51,-164"/>
<polygon fill="black" stroke="black" points="978.95,-167.49 988.88,-163.81 978.82,-160.5 978.95,-167.49"/>
</g>
<!-- :character&#45;common -->
<g id="node15" class="node">
<title>:character&#45;common</title>
<ellipse fill="#66bb6a" stroke="black" cx="456" cy="-306" rx="86.21" ry="18"/>
<text text-anchor="middle" x="456" y="-301.8" font-family="Times,serif" font-size="14.00">:character&#45;common</text>
</g>
<!-- :character&#45;all&#45;&gt;:character&#45;common -->
<g id="edge35" class="edge">
<title>:character&#45;all&#45;&gt;:character&#45;common</title>
<path fill="none" stroke="black" stroke-dasharray="1,5" d="M173.78,-365.81C182.16,-363.83 190.83,-361.82 199,-360 261.95,-345.98 333.87,-331.26 385.58,-320.9"/>
<polygon fill="black" stroke="black" points="386.53,-324.28 395.65,-318.89 385.16,-317.41 386.53,-324.28"/>
</g>
<!-- :character&#45;common&#45;&gt;:common&#45;util -->
<g id="edge39" class="edge">
<title>:character&#45;common&#45;&gt;:common&#45;util</title>
<path fill="none" stroke="black" stroke-dasharray="1,5" d="M447.21,-288.01C439.03,-269.91 429.19,-240.54 437,-216 461.26,-139.77 476.28,-112.96 545,-72 583.29,-49.18 700.74,-33.53 777.38,-25.44"/>
<polygon fill="black" stroke="black" points="777.86,-28.91 787.45,-24.4 777.14,-21.95 777.86,-28.91"/>
</g>
<!-- :character&#45;common&#45;&gt;:common&#45;ui -->
<g id="edge40" class="edge">
<title>:character&#45;common&#45;&gt;:common&#45;ui</title>
<path fill="none" stroke="black" stroke-dasharray="1,5" d="M491.61,-289.44C544.28,-266.63 640.65,-225.77 677,-216 780.99,-188.05 905.64,-174.07 980.46,-167.69"/>
<polygon fill="black" stroke="black" points="981.01,-171.15 990.68,-166.83 980.42,-164.18 981.01,-171.15"/>
</g>
<!-- :character&#45;common&#45;&gt;:domain -->
<g id="edge36" class="edge">
<title>:character&#45;common&#45;&gt;:domain</title>
<path fill="none" stroke="black" d="M463.99,-288.05C467.8,-279.97 472.44,-270.12 476.69,-261.11"/>
<polygon fill="black" stroke="black" points="479.99,-262.33 481.09,-251.79 473.66,-259.34 479.99,-262.33"/>
</g>
<!-- :character&#45;common&#45;&gt;:snackbar -->
<g id="edge38" class="edge">
<title>:character&#45;common&#45;&gt;:snackbar</title>
<path fill="none" stroke="black" d="M508.62,-291.75C559.42,-278.96 635.74,-259.74 685.21,-247.28"/>
<polygon fill="black" stroke="black" points="686.2,-250.65 695.04,-244.81 684.49,-243.86 686.2,-250.65"/>
</g>
<!-- :character&#45;common&#45;&gt;:navigation -->
<g id="edge37" class="edge">
<title>:character&#45;common&#45;&gt;:navigation</title>
<path fill="none" stroke="black" d="M527.62,-295.88C637.03,-281.96 843.82,-255.64 945.89,-242.65"/>
<polygon fill="black" stroke="black" points="946.56,-246.09 956.03,-241.36 945.67,-239.15 946.56,-246.09"/>
</g>
<!-- :character&#45;details&#45;&gt;:common&#45;util -->
<g id="edge42" class="edge">
<title>:character&#45;details&#45;&gt;:common&#45;util</title>
<path fill="none" stroke="black" stroke-dasharray="1,5" d="M602.56,-370.83C520.73,-362.81 392.45,-347.05 350,-324 240.47,-264.54 137.76,-159 227,-72 265.4,-34.56 617.23,-23.32 773.17,-20.15"/>
<polygon fill="black" stroke="black" points="773.68,-23.64 783.61,-19.95 773.54,-16.65 773.68,-23.64"/>
</g>
<!-- :character&#45;details&#45;&gt;:common&#45;ui -->
<g id="edge43" class="edge">
<title>:character&#45;details&#45;&gt;:common&#45;ui</title>
<path fill="none" stroke="black" stroke-dasharray="1,5" d="M597.21,-374.96C514.48,-370.96 390.66,-359.1 361,-324 350.67,-311.78 350.86,-300.37 361,-288 412.72,-224.91 468.31,-289.05 541,-252 562.02,-241.29 558.55,-225.82 580,-216 649.52,-184.18 867.51,-170.55 979.35,-165.52"/>
<polygon fill="black" stroke="black" points="979.66,-169.01 989.5,-165.08 979.36,-162.02 979.66,-169.01"/>
</g>
<!-- :character&#45;details&#45;&gt;:character&#45;common -->
<g id="edge44" class="edge">
<title>:character&#45;details&#45;&gt;:character&#45;common</title>
<path fill="none" stroke="black" stroke-dasharray="1,5" d="M630.41,-363C595.96,-351.94 547.69,-336.44 510.65,-324.55"/>
<polygon fill="black" stroke="black" points="511.61,-321.18 501.01,-321.45 509.47,-327.84 511.61,-321.18"/>
</g>
<!-- :collapsable&#45;drawer -->
<g id="node17" class="node">
<title>:collapsable&#45;drawer</title>
<ellipse fill="#66bb6a" stroke="black" cx="723" cy="-306" rx="87.35" ry="18"/>
<text text-anchor="middle" x="723" y="-301.8" font-family="Times,serif" font-size="14.00">:collapsable&#45;drawer</text>
</g>
<!-- :character&#45;details&#45;&gt;:collapsable&#45;drawer -->
<g id="edge41" class="edge">
<title>:character&#45;details&#45;&gt;:collapsable&#45;drawer</title>
<path fill="none" stroke="black" d="M685.86,-360.05C691.61,-351.84 698.65,-341.79 705.04,-332.66"/>
<polygon fill="black" stroke="black" points="708.04,-334.47 710.91,-324.28 702.31,-330.46 708.04,-334.47"/>
</g>
<!-- :location&#45;common -->
<g id="node18" class="node">
<title>:location&#45;common</title>
<ellipse fill="#66bb6a" stroke="black" cx="1088" cy="-306" rx="81.68" ry="18"/>
<text text-anchor="middle" x="1088" y="-301.8" font-family="Times,serif" font-size="14.00">:location&#45;common</text>
</g>
<!-- :character&#45;details&#45;&gt;:location&#45;common -->
<g id="edge45" class="edge">
<title>:character&#45;details&#45;&gt;:location&#45;common</title>
<path fill="none" stroke="black" stroke-dasharray="1,5" d="M730.37,-365.48C740.23,-363.58 750.4,-361.68 760,-360 864.95,-341.67 891.95,-341.79 997,-324 1003.97,-322.82 1011.24,-321.54 1018.49,-320.24"/>
<polygon fill="black" stroke="black" points="1019.12,-323.68 1028.33,-318.45 1017.87,-316.79 1019.12,-323.68"/>
</g>
<!-- :episode&#45;common -->
<g id="node19" class="node">
<title>:episode&#45;common</title>
<ellipse fill="#66bb6a" stroke="black" cx="908" cy="-306" rx="80.46" ry="18"/>
<text text-anchor="middle" x="908" y="-301.8" font-family="Times,serif" font-size="14.00">:episode&#45;common</text>
</g>
<!-- :character&#45;details&#45;&gt;:episode&#45;common -->
<g id="edge46" class="edge">
<title>:character&#45;details&#45;&gt;:episode&#45;common</title>
<path fill="none" stroke="black" stroke-dasharray="1,5" d="M719.67,-363.34C757.52,-352.02 811.46,-335.88 851.93,-323.77"/>
<polygon fill="black" stroke="black" points="853.07,-327.09 861.64,-320.87 851.06,-320.38 853.07,-327.09"/>
</g>
<!-- :collapsable&#45;drawer&#45;&gt;:common&#45;ui -->
<g id="edge47" class="edge">
<title>:collapsable&#45;drawer&#45;&gt;:common&#45;ui</title>
<path fill="none" stroke="black" stroke-dasharray="1,5" d="M768.14,-290.45C795.84,-280.88 831.69,-267.31 862,-252 888.41,-238.66 891.76,-229.68 918,-216 944.63,-202.12 975.74,-189.24 1000.73,-179.66"/>
<polygon fill="black" stroke="black" points="1002.23,-182.84 1010.34,-176.03 999.75,-176.29 1002.23,-182.84"/>
</g>
<!-- :location&#45;common&#45;&gt;:common&#45;util -->
<g id="edge51" class="edge">
<title>:location&#45;common&#45;&gt;:common&#45;util</title>
<path fill="none" stroke="black" stroke-dasharray="1,5" d="M1097.79,-287.96C1114.26,-256.79 1143.02,-189.63 1114,-144 1069.81,-74.51 975.7,-43 911.87,-29.17"/>
<polygon fill="black" stroke="black" points="912.41,-25.7 901.9,-27.1 910.98,-32.56 912.41,-25.7"/>
</g>
<!-- :location&#45;common&#45;&gt;:common&#45;ui -->
<g id="edge52" class="edge">
<title>:location&#45;common&#45;&gt;:common&#45;ui</title>
<path fill="none" stroke="black" stroke-dasharray="1,5" d="M1085.27,-287.7C1082.2,-269.59 1076.61,-240.44 1069,-216 1066.23,-207.11 1062.55,-197.65 1059,-189.22"/>
<polygon fill="black" stroke="black" points="1062.14,-187.67 1054.94,-179.89 1055.72,-190.46 1062.14,-187.67"/>
</g>
<!-- :location&#45;common&#45;&gt;:domain -->
<g id="edge48" class="edge">
<title>:location&#45;common&#45;&gt;:domain</title>
<path fill="none" stroke="black" d="M1029.37,-293.33C1018.63,-291.39 1007.5,-289.53 997,-288 909.76,-275.32 651.58,-250.36 540.63,-239.85"/>
<polygon fill="black" stroke="black" points="540.65,-236.34 530.36,-238.88 539.99,-243.31 540.65,-236.34"/>
</g>
<!-- :location&#45;common&#45;&gt;:snackbar -->
<g id="edge50" class="edge">
<title>:location&#45;common&#45;&gt;:snackbar</title>
<path fill="none" stroke="black" d="M1029.15,-293.36C961.12,-279.91 850.26,-257.99 785.51,-245.19"/>
<polygon fill="black" stroke="black" points="786.02,-241.72 775.53,-243.21 784.66,-248.59 786.02,-241.72"/>
</g>
<!-- :location&#45;common&#45;&gt;:navigation -->
<g id="edge49" class="edge">
<title>:location&#45;common&#45;&gt;:navigation</title>
<path fill="none" stroke="black" d="M1068.57,-288.41C1057.79,-279.21 1044.24,-267.64 1032.51,-257.63"/>
<polygon fill="black" stroke="black" points="1034.61,-254.82 1024.73,-250.99 1030.06,-260.14 1034.61,-254.82"/>
</g>
<!-- :episode&#45;common&#45;&gt;:common&#45;util -->
<g id="edge56" class="edge">
<title>:episode&#45;common&#45;&gt;:common&#45;util</title>
<path fill="none" stroke="black" stroke-dasharray="1,5" d="M904.37,-287.97C894.18,-240.19 865.26,-104.62 852.82,-46.27"/>
<polygon fill="black" stroke="black" points="856.2,-45.36 850.69,-36.31 849.35,-46.82 856.2,-45.36"/>
</g>
<!-- :episode&#45;common&#45;&gt;:common&#45;ui -->
<g id="edge57" class="edge">
<title>:episode&#45;common&#45;&gt;:common&#45;ui</title>
<path fill="none" stroke="black" stroke-dasharray="1,5" d="M910.92,-288C915.04,-268.53 924.25,-236.65 943,-216 957.87,-199.62 978.96,-187.58 998.27,-179.15"/>
<polygon fill="black" stroke="black" points="999.67,-182.35 1007.57,-175.29 996.99,-175.89 999.67,-182.35"/>
</g>
<!-- :episode&#45;common&#45;&gt;:domain -->
<g id="edge53" class="edge">
<title>:episode&#45;common&#45;&gt;:domain</title>
<path fill="none" stroke="black" d="M849.64,-293.6C839.44,-291.68 828.92,-289.74 819,-288 719.59,-270.53 602.92,-252.33 538.34,-242.46"/>
<polygon fill="black" stroke="black" points="538.84,-239 528.43,-240.95 537.79,-245.92 538.84,-239"/>
</g>
<!-- :episode&#45;common&#45;&gt;:snackbar -->
<g id="edge55" class="edge">
<title>:episode&#45;common&#45;&gt;:snackbar</title>
<path fill="none" stroke="black" d="M870.67,-289.98C842.5,-278.65 803.88,-263.11 774.88,-251.45"/>
<polygon fill="black" stroke="black" points="776.03,-248.13 765.44,-247.65 773.41,-254.63 776.03,-248.13"/>
</g>
<!-- :episode&#45;common&#45;&gt;:navigation -->
<g id="edge54" class="edge">
<title>:episode&#45;common&#45;&gt;:navigation</title>
<path fill="none" stroke="black" d="M931.22,-288.41C944.66,-278.81 961.72,-266.63 976.14,-256.33"/>
<polygon fill="black" stroke="black" points="978.18,-259.17 984.28,-250.51 974.11,-253.48 978.18,-259.17"/>
</g>
<!-- :character&#45;favorite&#45;&gt;:common&#45;util -->
<g id="edge58" class="edge">
<title>:character&#45;favorite&#45;&gt;:common&#45;util</title>
<path fill="none" stroke="black" stroke-dasharray="1,5" d="M245.13,-362.81C192.99,-343.18 114,-302.33 114,-235 114,-235 114,-235 114,-161 114,-106.61 148.97,-95.55 198,-72 297.82,-24.04 624.98,-18.45 773.04,-18.46"/>
<polygon fill="black" stroke="black" points="773.38,-21.96 783.39,-18.47 773.39,-14.96 773.38,-21.96"/>
</g>
<!-- :character&#45;favorite&#45;&gt;:common&#45;ui -->
<g id="edge59" class="edge">
<title>:character&#45;favorite&#45;&gt;:common&#45;ui</title>
<path fill="none" stroke="black" stroke-dasharray="1,5" d="M296.98,-359.92C305.3,-340.95 320.56,-310.08 340,-288 375.49,-247.71 386.8,-235.04 437,-216 534.57,-178.98 841.28,-167.57 978.94,-164.26"/>
<polygon fill="black" stroke="black" points="979.04,-167.76 988.95,-164.03 978.88,-160.76 979.04,-167.76"/>
</g>
<!-- :character&#45;favorite&#45;&gt;:character&#45;common -->
<g id="edge60" class="edge">
<title>:character&#45;favorite&#45;&gt;:character&#45;common</title>
<path fill="none" stroke="black" stroke-dasharray="1,5" d="M326.02,-361.81C350.65,-351.43 383.51,-337.57 410.02,-326.39"/>
<polygon fill="black" stroke="black" points="411.62,-329.51 419.48,-322.4 408.9,-323.06 411.62,-329.51"/>
</g>
<!-- :episode&#45;all&#45;&gt;:common&#45;util -->
<g id="edge61" class="edge">
<title>:episode&#45;all&#45;&gt;:common&#45;util</title>
<path fill="none" stroke="black" stroke-dasharray="1,5" d="M1200.19,-360.14C1206.16,-350.1 1212.91,-336.85 1216,-324 1219.73,-308.44 1217.53,-303.93 1216,-288 1205.78,-181.94 1204.63,-124.66 1112,-72 1052.96,-38.44 975.97,-25.89 920.2,-21.31"/>
<polygon fill="black" stroke="black" points="920.28,-17.81 910.04,-20.55 919.75,-24.79 920.28,-17.81"/>
</g>
<!-- :episode&#45;all&#45;&gt;:common&#45;ui -->
<g id="edge62" class="edge">
<title>:episode&#45;all&#45;&gt;:common&#45;ui</title>
<path fill="none" stroke="black" stroke-dasharray="1,5" d="M1215.17,-361.88C1228.25,-352.76 1242.78,-339.83 1250,-324 1271.11,-277.7 1250.98,-248.7 1212,-216 1183.38,-191.99 1143.71,-178.81 1110.44,-171.59"/>
<polygon fill="black" stroke="black" points="1110.84,-168.1 1100.34,-169.54 1109.44,-174.96 1110.84,-168.1"/>
</g>
<!-- :episode&#45;all&#45;&gt;:episode&#45;common -->
<g id="edge63" class="edge">
<title>:episode&#45;all&#45;&gt;:episode&#45;common</title>
<path fill="none" stroke="black" stroke-dasharray="1,5" d="M1146.02,-366.29C1098.93,-354.56 1023.01,-335.65 969.6,-322.35"/>
<polygon fill="black" stroke="black" points="970.12,-318.87 959.57,-319.85 968.43,-325.66 970.12,-318.87"/>
</g>
<!-- :episode&#45;details&#45;&gt;:common&#45;util -->
<g id="edge65" class="edge">
<title>:episode&#45;details&#45;&gt;:common&#45;util</title>
<path fill="none" stroke="black" stroke-dasharray="1,5" d="M789.95,-365.2C780.37,-363.26 770.41,-361.42 761,-360 672.75,-346.7 427.8,-383.19 361,-324 330.73,-297.17 342,-275.45 342,-235 342,-235 342,-235 342,-161 342,-71.93 636.83,-36.07 775.94,-24.11"/>
<polygon fill="black" stroke="black" points="776.41,-27.58 786.09,-23.25 775.83,-20.61 776.41,-27.58"/>
</g>
<!-- :episode&#45;details&#45;&gt;:common&#45;ui -->
<g id="edge66" class="edge">
<title>:episode&#45;details&#45;&gt;:common&#45;ui</title>
<path fill="none" stroke="black" stroke-dasharray="1,5" d="M788.37,-365.66C726.66,-352.11 632.06,-330.47 627,-324 617.14,-311.4 616.97,-300.47 627,-288 673.77,-229.85 720.71,-277.07 791,-252 824.32,-240.11 829.07,-228.93 862,-216 904.5,-199.31 954.34,-185.34 991.57,-175.94"/>
<polygon fill="black" stroke="black" points="992.87,-179.22 1001.73,-173.41 991.18,-172.43 992.87,-179.22"/>
</g>
<!-- :episode&#45;details&#45;&gt;:character&#45;common -->
<g id="edge68" class="edge">
<title>:episode&#45;details&#45;&gt;:character&#45;common</title>
<path fill="none" stroke="black" stroke-dasharray="1,5" d="M788.56,-365.56C779.38,-363.65 769.92,-361.72 761,-360 683.02,-344.94 593.44,-329.61 531.63,-319.34"/>
<polygon fill="black" stroke="black" points="532.01,-315.85 521.58,-317.67 530.87,-322.76 532.01,-315.85"/>
</g>
<!-- :episode&#45;details&#45;&gt;:collapsable&#45;drawer -->
<g id="edge64" class="edge">
<title>:episode&#45;details&#45;&gt;:collapsable&#45;drawer</title>
<path fill="none" stroke="black" d="M814.22,-361.12C798.01,-351.5 777.11,-339.1 759.41,-328.6"/>
<polygon fill="black" stroke="black" points="760.88,-325.4 750.49,-323.31 757.3,-331.42 760.88,-325.4"/>
</g>
<!-- :episode&#45;details&#45;&gt;:location&#45;common -->
<g id="edge69" class="edge">
<title>:episode&#45;details&#45;&gt;:location&#45;common</title>
<path fill="none" stroke="black" stroke-dasharray="1,5" d="M886.59,-364.08C927.02,-352.62 986.29,-335.83 1030.07,-323.42"/>
<polygon fill="black" stroke="black" points="1031.05,-326.78 1039.72,-320.68 1029.15,-320.04 1031.05,-326.78"/>
</g>
<!-- :episode&#45;details&#45;&gt;:episode&#45;common -->
<g id="edge67" class="edge">
<title>:episode&#45;details&#45;&gt;:episode&#45;common</title>
<path fill="none" stroke="black" stroke-dasharray="1,5" d="M856.88,-360.41C865.18,-351.73 875.51,-340.95 884.7,-331.34"/>
<polygon fill="black" stroke="black" points="887.38,-333.6 891.77,-323.96 882.33,-328.76 887.38,-333.6"/>
</g>
<!-- :episode&#45;favorite&#45;&gt;:common&#45;util -->
<g id="edge70" class="edge">
<title>:episode&#45;favorite&#45;&gt;:common&#45;util</title>
<path fill="none" stroke="black" stroke-dasharray="1,5" d="M1395.68,-365.63C1466.37,-351.09 1579.65,-327.36 1583,-324 1611.54,-295.34 1602,-275.45 1602,-235 1602,-235 1602,-235 1602,-161 1602,-90.98 1537.95,-95.51 1472,-72 1372.24,-36.44 1063.27,-24.32 920.59,-20.55"/>
<polygon fill="black" stroke="black" points="920.29,-17.04 910.2,-20.28 920.11,-24.04 920.29,-17.04"/>
</g>
<!-- :episode&#45;favorite&#45;&gt;:common&#45;ui -->
<g id="edge71" class="edge">
<title>:episode&#45;favorite&#45;&gt;:common&#45;ui</title>
<path fill="none" stroke="black" stroke-dasharray="1,5" d="M1334.69,-359.95C1323.51,-326.92 1294.34,-254.11 1244,-216 1206.3,-187.46 1154.35,-174.28 1113.27,-168.19"/>
<polygon fill="black" stroke="black" points="1113.72,-164.72 1103.34,-166.83 1112.77,-171.65 1113.72,-164.72"/>
</g>
<!-- :episode&#45;favorite&#45;&gt;:episode&#45;common -->
<g id="edge72" class="edge">
<title>:episode&#45;favorite&#45;&gt;:episode&#45;common</title>
<path fill="none" stroke="black" stroke-dasharray="1,5" d="M1284.57,-365.57C1274.42,-363.61 1263.9,-361.67 1254,-360 1140.27,-340.81 1110.79,-342.83 997,-324 990.22,-322.88 983.17,-321.65 976.13,-320.37"/>
<polygon fill="black" stroke="black" points="976.32,-316.85 965.85,-318.48 975.06,-323.73 976.32,-316.85"/>
</g>
<!-- :location&#45;all&#45;&gt;:common&#45;util -->
<g id="edge73" class="edge">
<title>:location&#45;all&#45;&gt;:common&#45;util</title>
<path fill="none" stroke="black" stroke-dasharray="1,5" d="M1535.16,-365.98C1559.13,-357.9 1587.88,-344.65 1607,-324 1635.66,-293.05 1640,-277.19 1640,-235 1640,-235 1640,-235 1640,-161 1640,-101.17 1594.12,-95.26 1539,-72 1429.2,-25.66 1075.85,-19.29 920.94,-18.79"/>
<polygon fill="black" stroke="black" points="920.59,-15.29 910.59,-18.76 920.58,-22.29 920.59,-15.29"/>
</g>
<!-- :location&#45;all&#45;&gt;:common&#45;ui -->
<g id="edge74" class="edge">
<title>:location&#45;all&#45;&gt;:common&#45;ui</title>
<path fill="none" stroke="black" stroke-dasharray="1,5" d="M1475.32,-360.73C1440.89,-328.1 1358.23,-254.51 1275,-216 1222.43,-191.68 1157.71,-178.01 1110.68,-170.67"/>
<polygon fill="black" stroke="black" points="1111.03,-167.18 1100.62,-169.16 1109.99,-174.11 1111.03,-167.18"/>
</g>
<!-- :location&#45;all&#45;&gt;:location&#45;common -->
<g id="edge75" class="edge">
<title>:location&#45;all&#45;&gt;:location&#45;common</title>
<path fill="none" stroke="black" stroke-dasharray="1,5" d="M1449.6,-365.61C1441.47,-363.61 1432.99,-361.64 1425,-360 1337.25,-342.01 1235.57,-326.78 1167.04,-317.32"/>
<polygon fill="black" stroke="black" points="1167.13,-313.8 1156.75,-315.91 1166.18,-320.74 1167.13,-313.8"/>
</g>
<!-- :location&#45;details&#45;&gt;:common&#45;util -->
<g id="edge77" class="edge">
<title>:location&#45;details&#45;&gt;:common&#45;util</title>
<path fill="none" stroke="black" stroke-dasharray="1,5" d="M1066.38,-368.35C1117.1,-359.89 1182.81,-345.18 1199,-324 1208.72,-311.29 1202.37,-303.64 1199,-288 1175.61,-179.35 1167.8,-130.01 1073,-72 1026.24,-43.39 965.37,-30.22 918.58,-24.16"/>
<polygon fill="black" stroke="black" points="918.87,-20.67 908.52,-22.94 918.03,-27.62 918.87,-20.67"/>
</g>
<!-- :location&#45;details&#45;&gt;:common&#45;ui -->
<g id="edge78" class="edge">
<title>:location&#45;details&#45;&gt;:common&#45;ui</title>
<path fill="none" stroke="black" stroke-dasharray="1,5" d="M1054.81,-364.87C1103.71,-352.69 1171.36,-334.29 1179,-324 1217.91,-271.56 1136.17,-212.96 1084.68,-183"/>
<polygon fill="black" stroke="black" points="1086.19,-179.83 1075.77,-177.92 1082.73,-185.92 1086.19,-179.83"/>
</g>
<!-- :location&#45;details&#45;&gt;:character&#45;common -->
<g id="edge80" class="edge">
<title>:location&#45;details&#45;&gt;:character&#45;common</title>
<path fill="none" stroke="black" stroke-dasharray="1,5" d="M951.64,-365.4C941.82,-363.44 931.62,-361.54 922,-360 850.88,-348.61 655.51,-327.65 541.59,-315.79"/>
<polygon fill="black" stroke="black" points="541.81,-312.29 531.5,-314.74 541.08,-319.25 541.81,-312.29"/>
</g>
<!-- :location&#45;details&#45;&gt;:collapsable&#45;drawer -->
<g id="edge76" class="edge">
<title>:location&#45;details&#45;&gt;:collapsable&#45;drawer</title>
<path fill="none" stroke="black" d="M954.41,-364.65C907.59,-352.98 837.15,-335.44 786.3,-322.77"/>
<polygon fill="black" stroke="black" points="786.95,-319.32 776.4,-320.3 785.26,-326.12 786.95,-319.32"/>
</g>
<!-- :location&#45;details&#45;&gt;:location&#45;common -->
<g id="edge79" class="edge">
<title>:location&#45;details&#45;&gt;:location&#45;common</title>
<path fill="none" stroke="black" stroke-dasharray="1,5" d="M1023.91,-360.41C1034.79,-351.34 1048.43,-339.97 1060.33,-330.06"/>
<polygon fill="black" stroke="black" points="1062.79,-332.56 1068.24,-323.47 1058.31,-327.18 1062.79,-332.56"/>
</g>
<!-- :location&#45;details&#45;&gt;:episode&#45;common -->
<g id="edge81" class="edge">
<title>:location&#45;details&#45;&gt;:episode&#45;common</title>
<path fill="none" stroke="black" stroke-dasharray="1,5" d="M981.73,-360.76C968.98,-351.47 952.79,-339.66 938.83,-329.48"/>
<polygon fill="black" stroke="black" points="940.62,-326.45 930.48,-323.39 936.5,-332.11 940.62,-326.45"/>
</g>
<!-- :location&#45;favorite&#45;&gt;:common&#45;util -->
<g id="edge82" class="edge">
<title>:location&#45;favorite&#45;&gt;:common&#45;util</title>
<path fill="none" stroke="black" stroke-dasharray="1,5" d="M1652.48,-359.79C1661.83,-333.36 1678,-280.99 1678,-235 1678,-235 1678,-235 1678,-161 1678,-105.99 1641.84,-95.27 1592,-72 1532.17,-44.07 1095.89,-27.03 920.11,-21.24"/>
<polygon fill="black" stroke="black" points="920.02,-17.73 909.92,-20.9 919.8,-24.73 920.02,-17.73"/>
</g>
<!-- :location&#45;favorite&#45;&gt;:common&#45;ui -->
<g id="edge83" class="edge">
<title>:location&#45;favorite&#45;&gt;:common&#45;ui</title>
<path fill="none" stroke="black" stroke-dasharray="1,5" d="M1595.08,-364.24C1562.23,-355.1 1519.07,-341.35 1483,-324 1443.68,-305.08 1359.4,-232.49 1319,-216 1251.8,-188.58 1169.34,-175.07 1112.95,-168.6"/>
<polygon fill="black" stroke="black" points="1113.05,-165.09 1102.73,-167.47 1112.29,-172.05 1113.05,-165.09"/>
</g>
<!-- :location&#45;favorite&#45;&gt;:location&#45;common -->
<g id="edge84" class="edge">
<title>:location&#45;favorite&#45;&gt;:location&#45;common</title>
<path fill="none" stroke="black" stroke-dasharray="1,5" d="M1589.96,-365.36C1579.68,-363.42 1569.04,-361.54 1559,-360 1424.42,-339.31 1267.04,-323.23 1172.55,-314.44"/>
<polygon fill="black" stroke="black" points="1172.76,-310.94 1162.48,-313.5 1172.12,-317.91 1172.76,-310.94"/>
</g>
<!-- :common&#45;test -->
<g id="node27" class="node">
<title>:common&#45;test</title>
<polygon fill="#66bb6a" stroke="black" points="1141.49,-468 1048.51,-468 1048.51,-432 1141.49,-432 1141.49,-468"/>
<text text-anchor="middle" x="1095" y="-445.8" font-family="Times,serif" font-size="14.00">:common&#45;test</text>
</g>
</g>
</svg>
