<svg width="2014px" height="731px"
 viewBox="0.00 0.00 1450.05 526.00" xmlns="http://www.w3.org/2000/svg" xmlns:xlink="http://www.w3.org/1999/xlink">
<g id="graph0" class="graph" transform="scale(1.0007919936640506 1.0007919936640506) rotate(0.0) translate(4.0 522.0)">
<polygon fill="white" stroke="transparent" points="-4,4 -4,-522 1446.05,-522 1446.05,4 -4,4"/>
<text text-anchor="middle" x="721.02" y="-482.5" font-family="Times,serif" font-size="35.00">Rick and Morty Compose</text>
<!-- : -->
<g id="node1" class="node">
<title>:</title>
<polygon fill="#bdbdbd" stroke="black" points="103,-468 49,-468 49,-432 103,-432 103,-468"/>
<text text-anchor="middle" x="76" y="-445.8" font-family="Times,serif" font-size="14.00">:</text>
</g>
<!-- :graphql -->
<g id="node2" class="node">
<title>:graphql</title>
<ellipse fill="#66bb6a" stroke="black" cx="158" cy="-162" rx="43.44" ry="18"/>
<text text-anchor="middle" x="158" y="-157.8" font-family="Times,serif" font-size="14.00">:graphql</text>
</g>
<!-- :&#45;&gt;:graphql -->
<g id="edge1" class="edge">
<title>:&#45;&gt;:graphql</title>
<path fill="none" stroke="black" d="M79.93,-431.87C88.97,-393.09 112.43,-295.72 138,-216 140.81,-207.25 144.23,-197.83 147.44,-189.39"/>
<polygon fill="black" stroke="black" points="150.72,-190.62 151.07,-180.03 144.19,-188.09 150.72,-190.62"/>
</g>
<!-- :apollo -->
<g id="node3" class="node">
<title>:apollo</title>
<ellipse fill="#66bb6a" stroke="black" cx="161" cy="-90" rx="37.72" ry="18"/>
<text text-anchor="middle" x="161" y="-85.8" font-family="Times,serif" font-size="14.00">:apollo</text>
</g>
<!-- :graphql&#45;&gt;:apollo -->
<g id="edge2" class="edge">
<title>:graphql&#45;&gt;:apollo</title>
<path fill="none" stroke="black" d="M158.74,-143.7C159.07,-135.98 159.47,-126.71 159.84,-118.11"/>
<polygon fill="black" stroke="black" points="163.34,-118.25 160.27,-108.1 156.34,-117.95 163.34,-118.25"/>
</g>
<!-- :common&#45;util -->
<g id="node4" class="node">
<title>:common&#45;util</title>
<ellipse fill="#66bb6a" stroke="black" cx="643" cy="-18" rx="63.72" ry="18"/>
<text text-anchor="middle" x="643" y="-13.8" font-family="Times,serif" font-size="14.00">:common&#45;util</text>
</g>
<!-- :apollo&#45;&gt;:common&#45;util -->
<g id="edge3" class="edge">
<title>:apollo&#45;&gt;:common&#45;util</title>
<path fill="none" stroke="black" stroke-dasharray="1,5" d="M190.45,-78.67C198.35,-76.19 206.93,-73.75 215,-72 338.91,-45.06 486.2,-30.57 571.7,-23.84"/>
<polygon fill="black" stroke="black" points="572.11,-27.32 581.81,-23.06 571.57,-20.34 572.11,-27.32"/>
</g>
<!-- :app -->
<g id="node5" class="node">
<title>:app</title>
<polygon fill="#66bb6a" stroke="black" points="990,-468 936,-468 936,-432 990,-432 990,-468"/>
<text text-anchor="middle" x="963" y="-445.8" font-family="Times,serif" font-size="14.00">:app</text>
</g>
<!-- :app&#45;&gt;:common&#45;util -->
<g id="edge4" class="edge">
<title>:app&#45;&gt;:common&#45;util</title>
<path fill="none" stroke="black" stroke-dasharray="1,5" d="M990.18,-435.12C993.11,-433.94 996.09,-432.87 999,-432 1195.06,-373.57 1442,-511.58 1442,-307 1442,-307 1442,-307 1442,-161 1442,-118.81 1442.78,-97.28 1409,-72 1354.43,-31.16 898.11,-21.75 716.82,-19.61"/>
<polygon fill="black" stroke="black" points="716.62,-16.11 706.58,-19.5 716.54,-23.11 716.62,-16.11"/>
</g>
<!-- :common&#45;ui -->
<g id="node6" class="node">
<title>:common&#45;ui</title>
<ellipse fill="#66bb6a" stroke="black" cx="791" cy="-162" rx="58.49" ry="18"/>
<text text-anchor="middle" x="791" y="-157.8" font-family="Times,serif" font-size="14.00">:common&#45;ui</text>
</g>
<!-- :app&#45;&gt;:common&#45;ui -->
<g id="edge5" class="edge">
<title>:app&#45;&gt;:common&#45;ui</title>
<path fill="none" stroke="black" stroke-dasharray="1,5" d="M977.75,-431.63C985.09,-421.85 993.19,-409.01 997,-396 1001.5,-380.65 1001.71,-375.29 997,-360 974.21,-286.01 957.47,-266.74 899,-216 881.23,-200.58 858.18,-188.47 837.95,-179.74"/>
<polygon fill="black" stroke="black" points="839.15,-176.45 828.58,-175.84 836.47,-182.91 839.15,-176.45"/>
</g>
<!-- :drawer -->
<g id="node7" class="node">
<title>:drawer</title>
<ellipse fill="#66bb6a" stroke="black" cx="1123" cy="-306" rx="40.55" ry="18"/>
<text text-anchor="middle" x="1123" y="-301.8" font-family="Times,serif" font-size="14.00">:drawer</text>
</g>
<!-- :app&#45;&gt;:drawer -->
<g id="edge6" class="edge">
<title>:app&#45;&gt;:drawer</title>
<path fill="none" stroke="black" stroke-dasharray="1,5" d="M990.21,-435.23C993.14,-434.02 996.1,-432.92 999,-432 1087.59,-403.9 1145.2,-467.15 1205,-396 1215.29,-383.75 1212.65,-374.05 1205,-360 1195.92,-343.32 1179.09,-331.09 1163.02,-322.61"/>
<polygon fill="black" stroke="black" points="1164.24,-319.31 1153.72,-318.05 1161.16,-325.59 1164.24,-319.31"/>
</g>
<!-- :theme&#45;controller -->
<g id="node9" class="node">
<title>:theme&#45;controller</title>
<ellipse fill="#66bb6a" stroke="black" cx="1336" cy="-234" rx="78.14" ry="18"/>
<text text-anchor="middle" x="1336" y="-229.8" font-family="Times,serif" font-size="14.00">:theme&#45;controller</text>
</g>
<!-- :app&#45;&gt;:theme&#45;controller -->
<g id="edge7" class="edge">
<title>:app&#45;&gt;:theme&#45;controller</title>
<path fill="none" stroke="black" stroke-dasharray="1,5" d="M990.2,-435.18C993.12,-433.99 996.09,-432.9 999,-432 1095.32,-402.18 1137.52,-449.48 1223,-396 1274.6,-363.72 1309.13,-298.34 1325.34,-261.6"/>
<polygon fill="black" stroke="black" points="1328.71,-262.62 1329.43,-252.05 1322.27,-259.87 1328.71,-262.62"/>
</g>
<!-- :character&#45;details -->
<g id="node11" class="node">
<title>:character&#45;details</title>
<ellipse fill="#66bb6a" stroke="black" cx="411" cy="-378" rx="77.54" ry="18"/>
<text text-anchor="middle" x="411" y="-373.8" font-family="Times,serif" font-size="14.00">:character&#45;details</text>
</g>
<!-- :app&#45;&gt;:character&#45;details -->
<g id="edge8" class="edge">
<title>:app&#45;&gt;:character&#45;details</title>
<path fill="none" stroke="black" stroke-dasharray="1,5" d="M935.84,-446.7C863.98,-440.43 662.95,-421.79 497,-396 490.33,-394.96 483.39,-393.78 476.48,-392.52"/>
<polygon fill="black" stroke="black" points="476.87,-389.03 466.4,-390.64 475.59,-395.92 476.87,-389.03"/>
</g>
<!-- :character&#45;favorite -->
<g id="node19" class="node">
<title>:character&#45;favorite</title>
<ellipse fill="#66bb6a" stroke="black" cx="212" cy="-378" rx="82.18" ry="18"/>
<text text-anchor="middle" x="212" y="-373.8" font-family="Times,serif" font-size="14.00">:character&#45;favorite</text>
</g>
<!-- :app&#45;&gt;:character&#45;favorite -->
<g id="edge9" class="edge">
<title>:app&#45;&gt;:character&#45;favorite</title>
<path fill="none" stroke="black" stroke-dasharray="1,5" d="M935.84,-447.41C847.49,-442.09 560.32,-423.7 324,-396 311.67,-394.55 298.61,-392.79 285.93,-390.95"/>
<polygon fill="black" stroke="black" points="286.27,-387.46 275.87,-389.46 285.25,-394.38 286.27,-387.46"/>
</g>
<!-- :episode&#45;details -->
<g id="node20" class="node">
<title>:episode&#45;details</title>
<ellipse fill="#66bb6a" stroke="black" cx="578" cy="-378" rx="71.78" ry="18"/>
<text text-anchor="middle" x="578" y="-373.8" font-family="Times,serif" font-size="14.00">:episode&#45;details</text>
</g>
<!-- :app&#45;&gt;:episode&#45;details -->
<g id="edge10" class="edge">
<title>:app&#45;&gt;:episode&#45;details</title>
<path fill="none" stroke="black" stroke-dasharray="1,5" d="M935.69,-444.56C882.39,-435.83 760.8,-415.55 659,-396 653.12,-394.87 647.02,-393.66 640.91,-392.42"/>
<polygon fill="black" stroke="black" points="641.17,-388.9 630.67,-390.33 639.76,-395.76 641.17,-388.9"/>
</g>
<!-- :episode&#45;favorite -->
<g id="node21" class="node">
<title>:episode&#45;favorite</title>
<ellipse fill="#66bb6a" stroke="black" cx="1120" cy="-378" rx="76.42" ry="18"/>
<text text-anchor="middle" x="1120" y="-373.8" font-family="Times,serif" font-size="14.00">:episode&#45;favorite</text>
</g>
<!-- :app&#45;&gt;:episode&#45;favorite -->
<g id="edge11" class="edge">
<title>:app&#45;&gt;:episode&#45;favorite</title>
<path fill="none" stroke="black" stroke-dasharray="1,5" d="M990.09,-436.11C993.09,-434.71 996.11,-433.32 999,-432 1024.21,-420.53 1052.55,-408.09 1075.47,-398.15"/>
<polygon fill="black" stroke="black" points="1077.15,-401.23 1084.94,-394.05 1074.37,-394.81 1077.15,-401.23"/>
</g>
<!-- :location&#45;details -->
<g id="node22" class="node">
<title>:location&#45;details</title>
<ellipse fill="#66bb6a" stroke="black" cx="741" cy="-378" rx="73.01" ry="18"/>
<text text-anchor="middle" x="741" y="-373.8" font-family="Times,serif" font-size="14.00">:location&#45;details</text>
</g>
<!-- :app&#45;&gt;:location&#45;details -->
<g id="edge12" class="edge">
<title>:app&#45;&gt;:location&#45;details</title>
<path fill="none" stroke="black" stroke-dasharray="1,5" d="M935.78,-440.42C900.58,-429.32 838.51,-409.75 793.89,-395.68"/>
<polygon fill="black" stroke="black" points="794.67,-392.25 784.08,-392.58 792.57,-398.93 794.67,-392.25"/>
</g>
<!-- :location&#45;favorite -->
<g id="node23" class="node">
<title>:location&#45;favorite</title>
<ellipse fill="#66bb6a" stroke="black" cx="910" cy="-378" rx="78.14" ry="18"/>
<text text-anchor="middle" x="910" y="-373.8" font-family="Times,serif" font-size="14.00">:location&#45;favorite</text>
</g>
<!-- :app&#45;&gt;:location&#45;favorite -->
<g id="edge13" class="edge">
<title>:app&#45;&gt;:location&#45;favorite</title>
<path fill="none" stroke="black" stroke-dasharray="1,5" d="M949.9,-431.7C943.61,-423.39 935.95,-413.28 929.04,-404.14"/>
<polygon fill="black" stroke="black" points="931.78,-401.96 922.95,-396.1 926.2,-406.19 931.78,-401.96"/>
</g>
<!-- :drawer&#45;&gt;:common&#45;util -->
<g id="edge15" class="edge">
<title>:drawer&#45;&gt;:common&#45;util</title>
<path fill="none" stroke="black" stroke-dasharray="1,5" d="M1130.32,-288.3C1147.58,-246.02 1185.4,-133.76 1130,-72 1102.87,-41.76 844.93,-27.13 715.85,-21.66"/>
<polygon fill="black" stroke="black" points="715.79,-18.16 705.65,-21.24 715.5,-25.15 715.79,-18.16"/>
</g>
<!-- :drawer&#45;&gt;:common&#45;ui -->
<g id="edge16" class="edge">
<title>:drawer&#45;&gt;:common&#45;ui</title>
<path fill="none" stroke="black" stroke-dasharray="1,5" d="M1114.82,-288.27C1103.9,-267.81 1082.58,-233.72 1054,-216 995.03,-179.43 915.63,-167.47 859.54,-163.87"/>
<polygon fill="black" stroke="black" points="859.54,-160.36 849.35,-163.29 859.14,-167.35 859.54,-160.36"/>
</g>
<!-- :navigation -->
<g id="node8" class="node">
<title>:navigation</title>
<ellipse fill="#66bb6a" stroke="black" cx="643" cy="-234" rx="54.47" ry="18"/>
<text text-anchor="middle" x="643" y="-229.8" font-family="Times,serif" font-size="14.00">:navigation</text>
</g>
<!-- :drawer&#45;&gt;:navigation -->
<g id="edge14" class="edge">
<title>:drawer&#45;&gt;:navigation</title>
<path fill="none" stroke="black" d="M1084.93,-299.45C1001.43,-287.27 801.7,-258.14 701.88,-243.59"/>
<polygon fill="black" stroke="black" points="702.36,-240.12 691.96,-242.14 701.35,-247.05 702.36,-240.12"/>
</g>
<!-- :navigation&#45;&gt;:common&#45;util -->
<g id="edge17" class="edge">
<title>:navigation&#45;&gt;:common&#45;util</title>
<path fill="none" stroke="black" stroke-dasharray="1,5" d="M643,-215.85C643,-178.83 643,-91.18 643,-46.39"/>
<polygon fill="black" stroke="black" points="646.5,-46.23 643,-36.23 639.5,-46.23 646.5,-46.23"/>
</g>
<!-- :navigation&#45;&gt;:common&#45;ui -->
<g id="edge18" class="edge">
<title>:navigation&#45;&gt;:common&#45;ui</title>
<path fill="none" stroke="black" stroke-dasharray="1,5" d="M672.95,-218.83C695.57,-208.14 726.82,-193.36 751.49,-181.69"/>
<polygon fill="black" stroke="black" points="753.04,-184.82 760.59,-177.38 750.05,-178.5 753.04,-184.82"/>
</g>
<!-- :theme&#45;controller&#45;&gt;:common&#45;util -->
<g id="edge20" class="edge">
<title>:theme&#45;controller&#45;&gt;:common&#45;util</title>
<path fill="none" stroke="black" stroke-dasharray="1,5" d="M1331.89,-215.96C1322.7,-181.94 1296.99,-105.95 1244,-72 1200.43,-44.09 866.1,-27.69 715.79,-21.66"/>
<polygon fill="black" stroke="black" points="715.86,-18.16 705.73,-21.26 715.58,-25.15 715.86,-18.16"/>
</g>
<!-- :theme&#45;controller&#45;&gt;:common&#45;ui -->
<g id="edge21" class="edge">
<title>:theme&#45;controller&#45;&gt;:common&#45;ui</title>
<path fill="none" stroke="black" stroke-dasharray="1,5" d="M1269.72,-224.49C1163.75,-210.88 957.57,-184.39 853.83,-171.07"/>
<polygon fill="black" stroke="black" points="854.18,-167.59 843.81,-169.78 853.28,-174.53 854.18,-167.59"/>
</g>
<!-- :data&#45;store -->
<g id="node10" class="node">
<title>:data&#45;store</title>
<ellipse fill="#66bb6a" stroke="black" cx="1348" cy="-90" rx="51.58" ry="18"/>
<text text-anchor="middle" x="1348" y="-85.8" font-family="Times,serif" font-size="14.00">:data&#45;store</text>
</g>
<!-- :theme&#45;controller&#45;&gt;:data&#45;store -->
<g id="edge19" class="edge">
<title>:theme&#45;controller&#45;&gt;:data&#45;store</title>
<path fill="none" stroke="black" d="M1337.45,-215.87C1339.49,-191.67 1343.25,-147.21 1345.69,-118.39"/>
<polygon fill="black" stroke="black" points="1349.19,-118.45 1346.55,-108.19 1342.22,-117.86 1349.19,-118.45"/>
</g>
<!-- :data&#45;store&#45;&gt;:common&#45;util -->
<g id="edge22" class="edge">
<title>:data&#45;store&#45;&gt;:common&#45;util</title>
<path fill="none" stroke="black" stroke-dasharray="1,5" d="M1309.5,-77.92C1300.53,-75.66 1290.98,-73.52 1282,-72 1078.83,-37.66 835.38,-25.27 716.13,-21.04"/>
<polygon fill="black" stroke="black" points="716.14,-17.54 706.02,-20.69 715.9,-24.54 716.14,-17.54"/>
</g>
<!-- :character&#45;details&#45;&gt;:common&#45;util -->
<g id="edge27" class="edge">
<title>:character&#45;details&#45;&gt;:common&#45;util</title>
<path fill="none" stroke="black" stroke-dasharray="1,5" d="M349.82,-366.75C244.01,-347.28 38,-300.91 38,-235 38,-235 38,-235 38,-161 38,-112.79 58.4,-96.36 100,-72 177.69,-26.5 439.42,-19.35 569.03,-18.68"/>
<polygon fill="black" stroke="black" points="569.27,-22.18 579.26,-18.64 569.24,-15.18 569.27,-22.18"/>
</g>
<!-- :character&#45;details&#45;&gt;:common&#45;ui -->
<g id="edge28" class="edge">
<title>:character&#45;details&#45;&gt;:common&#45;ui</title>
<path fill="none" stroke="black" stroke-dasharray="1,5" d="M353.3,-365.84C311.39,-356.42 259.85,-341.66 247,-324 205.79,-267.37 316.1,-219.21 323,-216 392.46,-183.67 611.01,-170.27 723.16,-165.41"/>
<polygon fill="black" stroke="black" points="723.5,-168.9 733.34,-164.98 723.2,-161.91 723.5,-168.9"/>
</g>
<!-- :character&#45;all -->
<g id="node12" class="node">
<title>:character&#45;all</title>
<ellipse fill="#66bb6a" stroke="black" cx="318" cy="-306" rx="61.93" ry="18"/>
<text text-anchor="middle" x="318" y="-301.8" font-family="Times,serif" font-size="14.00">:character&#45;all</text>
</g>
<!-- :character&#45;details&#45;&gt;:character&#45;all -->
<g id="edge23" class="edge">
<title>:character&#45;details&#45;&gt;:character&#45;all</title>
<path fill="none" stroke="black" d="M388.96,-360.41C376.51,-351.04 360.78,-339.2 347.3,-329.05"/>
<polygon fill="black" stroke="black" points="349.34,-326.21 339.24,-322.99 345.13,-331.8 349.34,-326.21"/>
</g>
<!-- :collapsable&#45;drawer -->
<g id="node16" class="node">
<title>:collapsable&#45;drawer</title>
<ellipse fill="#66bb6a" stroke="black" cx="619" cy="-306" rx="87.35" ry="18"/>
<text text-anchor="middle" x="619" y="-301.8" font-family="Times,serif" font-size="14.00">:collapsable&#45;drawer</text>
</g>
<!-- :character&#45;details&#45;&gt;:collapsable&#45;drawer -->
<g id="edge24" class="edge">
<title>:character&#45;details&#45;&gt;:collapsable&#45;drawer</title>
<path fill="none" stroke="black" d="M453.09,-362.83C485.64,-351.88 530.92,-336.64 565.95,-324.85"/>
<polygon fill="black" stroke="black" points="567.18,-328.13 575.54,-321.63 564.94,-321.5 567.18,-328.13"/>
</g>
<!-- :location&#45;all -->
<g id="node17" class="node">
<title>:location&#45;all</title>
<ellipse fill="#66bb6a" stroke="black" cx="456" cy="-306" rx="57.9" ry="18"/>
<text text-anchor="middle" x="456" y="-301.8" font-family="Times,serif" font-size="14.00">:location&#45;all</text>
</g>
<!-- :character&#45;details&#45;&gt;:location&#45;all -->
<g id="edge25" class="edge">
<title>:character&#45;details&#45;&gt;:location&#45;all</title>
<path fill="none" stroke="black" d="M421.89,-360.05C427.25,-351.71 433.83,-341.49 439.77,-332.25"/>
<polygon fill="black" stroke="black" points="442.74,-334.09 445.21,-323.79 436.86,-330.31 442.74,-334.09"/>
</g>
<!-- :episode&#45;all -->
<g id="node18" class="node">
<title>:episode&#45;all</title>
<ellipse fill="#66bb6a" stroke="black" cx="780" cy="-306" rx="56.17" ry="18"/>
<text text-anchor="middle" x="780" y="-301.8" font-family="Times,serif" font-size="14.00">:episode&#45;all</text>
</g>
<!-- :character&#45;details&#45;&gt;:episode&#45;all -->
<g id="edge26" class="edge">
<title>:character&#45;details&#45;&gt;:episode&#45;all</title>
<path fill="none" stroke="black" d="M467.39,-365.59C477.25,-363.67 487.42,-361.74 497,-360 593.62,-342.48 618.95,-344.45 715,-324 719.61,-323.02 724.38,-321.93 729.14,-320.78"/>
<polygon fill="black" stroke="black" points="730.01,-324.17 738.87,-318.37 728.33,-317.38 730.01,-324.17"/>
</g>
<!-- :character&#45;all&#45;&gt;:common&#45;util -->
<g id="edge32" class="edge">
<title>:character&#45;all&#45;&gt;:common&#45;util</title>
<path fill="none" stroke="black" stroke-dasharray="1,5" d="M273.6,-293.23C222.74,-277.09 141.82,-242.7 106,-180 94.79,-160.38 103.88,-82.01 114,-72 145.79,-40.55 432.54,-26.35 570.07,-21.3"/>
<polygon fill="black" stroke="black" points="570.24,-24.79 580.11,-20.94 569.99,-17.8 570.24,-24.79"/>
</g>
<!-- :character&#45;all&#45;&gt;:common&#45;ui -->
<g id="edge33" class="edge">
<title>:character&#45;all&#45;&gt;:common&#45;ui</title>
<path fill="none" stroke="black" stroke-dasharray="1,5" d="M353.37,-291.08C375.47,-281.61 403.99,-267.93 427,-252 446.13,-238.76 444.15,-226.32 465,-216 547.11,-175.34 653.74,-164.79 722.28,-162.6"/>
<polygon fill="black" stroke="black" points="722.62,-166.1 732.52,-162.33 722.43,-159.1 722.62,-166.1"/>
</g>
<!-- :character&#45;all&#45;&gt;:navigation -->
<g id="edge30" class="edge">
<title>:character&#45;all&#45;&gt;:navigation</title>
<path fill="none" stroke="black" d="M363.76,-293.7C372.14,-291.73 380.82,-289.75 389,-288 473.04,-269.99 495.19,-271.04 579,-252 583.41,-251 587.97,-249.9 592.54,-248.77"/>
<polygon fill="black" stroke="black" points="593.65,-252.1 602.48,-246.24 591.93,-245.31 593.65,-252.1"/>
</g>
<!-- :domain -->
<g id="node13" class="node">
<title>:domain</title>
<ellipse fill="#66bb6a" stroke="black" cx="375" cy="-234" rx="42.88" ry="18"/>
<text text-anchor="middle" x="375" y="-229.8" font-family="Times,serif" font-size="14.00">:domain</text>
</g>
<!-- :character&#45;all&#45;&gt;:domain -->
<g id="edge29" class="edge">
<title>:character&#45;all&#45;&gt;:domain</title>
<path fill="none" stroke="black" d="M331.51,-288.41C338.54,-279.78 347.26,-269.06 355.05,-259.5"/>
<polygon fill="black" stroke="black" points="357.99,-261.43 361.59,-251.47 352.56,-257.01 357.99,-261.43"/>
</g>
<!-- :snackbar -->
<g id="node15" class="node">
<title>:snackbar</title>
<ellipse fill="#66bb6a" stroke="black" cx="522" cy="-234" rx="48.07" ry="18"/>
<text text-anchor="middle" x="522" y="-229.8" font-family="Times,serif" font-size="14.00">:snackbar</text>
</g>
<!-- :character&#45;all&#45;&gt;:snackbar -->
<g id="edge31" class="edge">
<title>:character&#45;all&#45;&gt;:snackbar</title>
<path fill="none" stroke="black" d="M356.37,-291.83C390.97,-279.96 441.85,-262.5 478.07,-250.07"/>
<polygon fill="black" stroke="black" points="479.55,-253.27 487.87,-246.71 477.27,-246.65 479.55,-253.27"/>
</g>
<!-- :domain&#45;&gt;:graphql -->
<g id="edge34" class="edge">
<title>:domain&#45;&gt;:graphql</title>
<path fill="none" stroke="black" d="M342.04,-222.37C304.28,-210.19 242.29,-190.19 200.82,-176.81"/>
<polygon fill="black" stroke="black" points="201.86,-173.47 191.27,-173.73 199.71,-180.13 201.86,-173.47"/>
</g>
<!-- :domain&#45;&gt;:common&#45;util -->
<g id="edge36" class="edge">
<title>:domain&#45;&gt;:common&#45;util</title>
<path fill="none" stroke="black" stroke-dasharray="1,5" d="M374.44,-215.78C374.7,-196.39 377.87,-164.88 394,-144 441.53,-82.49 527.51,-48.95 584.94,-32.5"/>
<polygon fill="black" stroke="black" points="585.9,-35.86 594.6,-29.81 584.03,-29.12 585.9,-35.86"/>
</g>
<!-- :room -->
<g id="node14" class="node">
<title>:room</title>
<ellipse fill="#66bb6a" stroke="black" cx="437" cy="-162" rx="34.21" ry="18"/>
<text text-anchor="middle" x="437" y="-157.8" font-family="Times,serif" font-size="14.00">:room</text>
</g>
<!-- :domain&#45;&gt;:room -->
<g id="edge35" class="edge">
<title>:domain&#45;&gt;:room</title>
<path fill="none" stroke="black" d="M389.38,-216.76C397.4,-207.71 407.52,-196.29 416.37,-186.3"/>
<polygon fill="black" stroke="black" points="419.11,-188.47 423.12,-178.67 413.87,-183.83 419.11,-188.47"/>
</g>
<!-- :snackbar&#45;&gt;:common&#45;util -->
<g id="edge37" class="edge">
<title>:snackbar&#45;&gt;:common&#45;util</title>
<path fill="none" stroke="black" stroke-dasharray="1,5" d="M531.49,-216.21C552.56,-178.95 603.32,-89.17 628.43,-44.76"/>
<polygon fill="black" stroke="black" points="631.51,-46.44 633.38,-36.01 625.41,-42.99 631.51,-46.44"/>
</g>
<!-- :snackbar&#45;&gt;:common&#45;ui -->
<g id="edge38" class="edge">
<title>:snackbar&#45;&gt;:common&#45;ui</title>
<path fill="none" stroke="black" stroke-dasharray="1,5" d="M558.45,-222.08C565.58,-220.01 573.01,-217.9 580,-216 632.97,-201.59 693.81,-186.46 736.51,-176.07"/>
<polygon fill="black" stroke="black" points="737.52,-179.42 746.41,-173.66 735.87,-172.62 737.52,-179.42"/>
</g>
<!-- :collapsable&#45;drawer&#45;&gt;:common&#45;ui -->
<g id="edge39" class="edge">
<title>:collapsable&#45;drawer&#45;&gt;:common&#45;ui</title>
<path fill="none" stroke="black" stroke-dasharray="1,5" d="M668.25,-291.11C691.66,-282.67 718.87,-269.98 739,-252 758.18,-234.87 772.22,-208.92 780.84,-189.46"/>
<polygon fill="black" stroke="black" points="784.07,-190.79 784.74,-180.22 777.62,-188.07 784.07,-190.79"/>
</g>
<!-- :location&#45;all&#45;&gt;:common&#45;util -->
<g id="edge43" class="edge">
<title>:location&#45;all&#45;&gt;:common&#45;util</title>
<path fill="none" stroke="black" stroke-dasharray="1,5" d="M413.57,-293.71C378.8,-283.49 333.64,-267.69 323,-252 314.02,-238.76 318.08,-231.22 323,-216 347.37,-140.63 362.14,-116 428,-72 470.56,-43.57 527,-30.38 571.37,-24.26"/>
<polygon fill="black" stroke="black" points="572.04,-27.7 581.51,-22.96 571.14,-20.76 572.04,-27.7"/>
</g>
<!-- :location&#45;all&#45;&gt;:common&#45;ui -->
<g id="edge44" class="edge">
<title>:location&#45;all&#45;&gt;:common&#45;ui</title>
<path fill="none" stroke="black" stroke-dasharray="1,5" d="M498.81,-293.77C506.83,-291.77 515.16,-289.77 523,-288 603.87,-269.8 633.72,-292.58 706,-252 724.93,-241.37 724.06,-231.75 739,-216 748.15,-206.35 758.36,-195.88 767.3,-186.81"/>
<polygon fill="black" stroke="black" points="769.92,-189.14 774.46,-179.57 764.94,-184.22 769.92,-189.14"/>
</g>
<!-- :location&#45;all&#45;&gt;:navigation -->
<g id="edge41" class="edge">
<title>:location&#45;all&#45;&gt;:navigation</title>
<path fill="none" stroke="black" d="M491.61,-291.67C522.06,-280.27 566,-263.82 598.7,-251.58"/>
<polygon fill="black" stroke="black" points="600.33,-254.71 608.47,-247.93 597.87,-248.15 600.33,-254.71"/>
</g>
<!-- :location&#45;all&#45;&gt;:domain -->
<g id="edge40" class="edge">
<title>:location&#45;all&#45;&gt;:domain</title>
<path fill="none" stroke="black" d="M437.21,-288.76C426.35,-279.38 412.54,-267.44 400.68,-257.2"/>
<polygon fill="black" stroke="black" points="402.71,-254.32 392.85,-250.43 398.13,-259.61 402.71,-254.32"/>
</g>
<!-- :location&#45;all&#45;&gt;:snackbar -->
<g id="edge42" class="edge">
<title>:location&#45;all&#45;&gt;:snackbar</title>
<path fill="none" stroke="black" d="M471.64,-288.41C479.94,-279.61 490.29,-268.63 499.45,-258.92"/>
<polygon fill="black" stroke="black" points="502.16,-261.15 506.47,-251.47 497.06,-256.34 502.16,-261.15"/>
</g>
<!-- :episode&#45;all&#45;&gt;:common&#45;util -->
<g id="edge48" class="edge">
<title>:episode&#45;all&#45;&gt;:common&#45;util</title>
<path fill="none" stroke="black" stroke-dasharray="1,5" d="M798.75,-288.61C830.21,-259.06 887.43,-195.15 858,-144 823.92,-84.76 749.78,-50.99 698.15,-33.84"/>
<polygon fill="black" stroke="black" points="699.06,-30.45 688.47,-30.73 696.92,-37.12 699.06,-30.45"/>
</g>
<!-- :episode&#45;all&#45;&gt;:common&#45;ui -->
<g id="edge49" class="edge">
<title>:episode&#45;all&#45;&gt;:common&#45;ui</title>
<path fill="none" stroke="black" stroke-dasharray="1,5" d="M781.33,-287.87C783.2,-263.67 786.65,-219.21 788.88,-190.39"/>
<polygon fill="black" stroke="black" points="792.39,-190.43 789.67,-180.19 785.41,-189.89 792.39,-190.43"/>
</g>
<!-- :episode&#45;all&#45;&gt;:navigation -->
<g id="edge46" class="edge">
<title>:episode&#45;all&#45;&gt;:navigation</title>
<path fill="none" stroke="black" d="M751.28,-290.33C730.68,-279.8 702.74,-265.53 680.41,-254.11"/>
<polygon fill="black" stroke="black" points="681.71,-250.85 671.21,-249.42 678.53,-257.08 681.71,-250.85"/>
</g>
<!-- :episode&#45;all&#45;&gt;:domain -->
<g id="edge45" class="edge">
<title>:episode&#45;all&#45;&gt;:domain</title>
<path fill="none" stroke="black" d="M739.25,-293.59C731.25,-291.56 722.89,-289.59 715,-288 604.97,-265.76 575.74,-270.42 465,-252 451.38,-249.73 436.64,-247.05 423.11,-244.49"/>
<polygon fill="black" stroke="black" points="423.51,-241 413.03,-242.57 422.2,-247.88 423.51,-241"/>
</g>
<!-- :episode&#45;all&#45;&gt;:snackbar -->
<g id="edge47" class="edge">
<title>:episode&#45;all&#45;&gt;:snackbar</title>
<path fill="none" stroke="black" d="M737.84,-293.97C688.42,-281.01 609.5,-260.23 580,-252 576.19,-250.94 572.24,-249.82 568.27,-248.68"/>
<polygon fill="black" stroke="black" points="569.05,-245.26 558.47,-245.85 567.1,-251.99 569.05,-245.26"/>
</g>
<!-- :character&#45;favorite&#45;&gt;:common&#45;util -->
<g id="edge51" class="edge">
<title>:character&#45;favorite&#45;&gt;:common&#45;util</title>
<path fill="none" stroke="black" stroke-dasharray="1,5" d="M155.19,-364.89C92.39,-347.77 0,-309.87 0,-235 0,-235 0,-235 0,-161 0,-115.63 11.9,-96.64 50,-72 92.75,-44.35 420.94,-27.87 569.89,-21.74"/>
<polygon fill="black" stroke="black" points="570.44,-25.22 580.29,-21.32 570.16,-18.23 570.44,-25.22"/>
</g>
<!-- :character&#45;favorite&#45;&gt;:common&#45;ui -->
<g id="edge52" class="edge">
<title>:character&#45;favorite&#45;&gt;:common&#45;ui</title>
<path fill="none" stroke="black" stroke-dasharray="1,5" d="M211.33,-359.85C211.05,-325.97 215.85,-250.74 261,-216 296.94,-188.35 588.93,-171.96 723.51,-165.8"/>
<polygon fill="black" stroke="black" points="723.87,-169.29 733.7,-165.34 723.56,-162.3 723.87,-169.29"/>
</g>
<!-- :character&#45;favorite&#45;&gt;:character&#45;all -->
<g id="edge50" class="edge">
<title>:character&#45;favorite&#45;&gt;:character&#45;all</title>
<path fill="none" stroke="black" d="M236.58,-360.76C251.24,-351.09 270.01,-338.69 285.83,-328.24"/>
<polygon fill="black" stroke="black" points="287.86,-331.1 294.28,-322.67 284,-325.26 287.86,-331.1"/>
</g>
<!-- :episode&#45;details&#45;&gt;:common&#45;util -->
<g id="edge57" class="edge">
<title>:episode&#45;details&#45;&gt;:common&#45;util</title>
<path fill="none" stroke="black" stroke-dasharray="1,5" d="M526.03,-365.43C516.72,-363.51 507.09,-361.62 498,-360 383.74,-339.69 216.14,-399.88 247,-288 276.92,-179.54 286.16,-135.54 379,-72 410.19,-50.65 507.31,-35.13 574.62,-26.59"/>
<polygon fill="black" stroke="black" points="575.25,-30.04 584.74,-25.33 574.38,-23.09 575.25,-30.04"/>
</g>
<!-- :episode&#45;details&#45;&gt;:common&#45;ui -->
<g id="edge58" class="edge">
<title>:episode&#45;details&#45;&gt;:common&#45;ui</title>
<path fill="none" stroke="black" stroke-dasharray="1,5" d="M631.13,-365.72C640.42,-363.79 649.99,-361.82 659,-360 700.27,-351.68 818.21,-356.47 845,-324 878.38,-283.54 839.28,-221.55 812.32,-187.5"/>
<polygon fill="black" stroke="black" points="814.81,-185.02 805.78,-179.48 809.39,-189.44 814.81,-185.02"/>
</g>
<!-- :episode&#45;details&#45;&gt;:character&#45;all -->
<g id="edge55" class="edge">
<title>:episode&#45;details&#45;&gt;:character&#45;all</title>
<path fill="none" stroke="black" d="M530.92,-364.32C485.97,-352.22 418.32,-334.01 371.39,-321.37"/>
<polygon fill="black" stroke="black" points="372.27,-317.99 361.7,-318.77 370.45,-324.75 372.27,-317.99"/>
</g>
<!-- :episode&#45;details&#45;&gt;:collapsable&#45;drawer -->
<g id="edge54" class="edge">
<title>:episode&#45;details&#45;&gt;:collapsable&#45;drawer</title>
<path fill="none" stroke="black" d="M587.92,-360.05C592.69,-351.92 598.5,-342 603.81,-332.94"/>
<polygon fill="black" stroke="black" points="606.85,-334.67 608.88,-324.28 600.81,-331.14 606.85,-334.67"/>
</g>
<!-- :episode&#45;details&#45;&gt;:location&#45;all -->
<g id="edge56" class="edge">
<title>:episode&#45;details&#45;&gt;:location&#45;all</title>
<path fill="none" stroke="black" d="M550.62,-361.29C533.11,-351.24 510.23,-338.12 491.35,-327.28"/>
<polygon fill="black" stroke="black" points="492.87,-324.12 482.45,-322.18 489.38,-330.19 492.87,-324.12"/>
</g>
<!-- :episode&#45;details&#45;&gt;:episode&#45;all -->
<g id="edge53" class="edge">
<title>:episode&#45;details&#45;&gt;:episode&#45;all</title>
<path fill="none" stroke="black" d="M618.39,-363C651.75,-351.44 699.11,-335.03 733.94,-322.96"/>
<polygon fill="black" stroke="black" points="735.11,-326.26 743.41,-319.68 732.82,-319.65 735.11,-326.26"/>
</g>
<!-- :episode&#45;favorite&#45;&gt;:common&#45;util -->
<g id="edge60" class="edge">
<title>:episode&#45;favorite&#45;&gt;:common&#45;util</title>
<path fill="none" stroke="black" stroke-dasharray="1,5" d="M1151.21,-361.48C1166.78,-352.39 1184.84,-339.62 1197,-324 1222.92,-290.71 1230,-277.19 1230,-235 1230,-235 1230,-235 1230,-161 1230,-116.68 1221.58,-97.03 1185,-72 1147.08,-46.05 854.25,-28.95 715.49,-22.22"/>
<polygon fill="black" stroke="black" points="715.52,-18.72 705.37,-21.74 715.19,-25.71 715.52,-18.72"/>
</g>
<!-- :episode&#45;favorite&#45;&gt;:common&#45;ui -->
<g id="edge61" class="edge">
<title>:episode&#45;favorite&#45;&gt;:common&#45;ui</title>
<path fill="none" stroke="black" stroke-dasharray="1,5" d="M1103.22,-360.21C1093.71,-350.19 1081.96,-336.94 1073,-324 1042.11,-279.38 1058.93,-249.2 1016,-216 971.25,-181.39 907.55,-168.83 859.35,-164.52"/>
<polygon fill="black" stroke="black" points="859.56,-161.03 849.31,-163.73 859,-168.01 859.56,-161.03"/>
</g>
<!-- :episode&#45;favorite&#45;&gt;:episode&#45;all -->
<g id="edge59" class="edge">
<title>:episode&#45;favorite&#45;&gt;:episode&#45;all</title>
<path fill="none" stroke="black" d="M1064.24,-365.52C1001.24,-352.55 899.29,-331.56 836.14,-318.56"/>
<polygon fill="black" stroke="black" points="836.47,-315.05 825.97,-316.46 835.06,-321.91 836.47,-315.05"/>
</g>
<!-- :location&#45;details&#45;&gt;:common&#45;util -->
<g id="edge64" class="edge">
<title>:location&#45;details&#45;&gt;:common&#45;util</title>
<path fill="none" stroke="black" stroke-dasharray="1,5" d="M794.42,-365.56C833.94,-355.88 882.93,-340.92 895,-324 915.05,-295.9 931.82,-276.35 877,-144 861.49,-106.55 854.47,-94.88 821,-72 787.67,-49.22 744.35,-36.04 708.8,-28.52"/>
<polygon fill="black" stroke="black" points="709.48,-25.09 698.99,-26.55 708.1,-31.95 709.48,-25.09"/>
</g>
<!-- :location&#45;details&#45;&gt;:common&#45;ui -->
<g id="edge65" class="edge">
<title>:location&#45;details&#45;&gt;:common&#45;ui</title>
<path fill="none" stroke="black" stroke-dasharray="1,5" d="M789.68,-364.45C824.69,-354.33 867.51,-339.3 878,-324 897.18,-296.01 855.03,-218.97 853,-216 844.92,-204.16 833.54,-193.4 822.73,-184.72"/>
<polygon fill="black" stroke="black" points="824.7,-181.82 814.64,-178.49 820.43,-187.37 824.7,-181.82"/>
</g>
<!-- :location&#45;details&#45;&gt;:character&#45;all -->
<g id="edge66" class="edge">
<title>:location&#45;details&#45;&gt;:character&#45;all</title>
<path fill="none" stroke="black" stroke-dasharray="1,5" d="M688.17,-365.47C678.49,-363.52 668.46,-361.61 659,-360 539.65,-339.7 508.02,-346.12 389,-324 383.7,-323.02 378.21,-321.89 372.73,-320.7"/>
<polygon fill="black" stroke="black" points="373.45,-317.27 362.92,-318.49 371.91,-324.1 373.45,-317.27"/>
</g>
<!-- :location&#45;details&#45;&gt;:collapsable&#45;drawer -->
<g id="edge63" class="edge">
<title>:location&#45;details&#45;&gt;:collapsable&#45;drawer</title>
<path fill="none" stroke="black" d="M713.62,-361.29C696.6,-351.52 674.49,-338.84 655.92,-328.19"/>
<polygon fill="black" stroke="black" points="657.55,-325.08 647.13,-323.14 654.07,-331.16 657.55,-325.08"/>
</g>
<!-- :location&#45;details&#45;&gt;:location&#45;all -->
<g id="edge62" class="edge">
<title>:location&#45;details&#45;&gt;:location&#45;all</title>
<path fill="none" stroke="black" d="M690.31,-364.83C646.1,-354.18 580.27,-338.23 523,-324 518.44,-322.87 513.7,-321.68 508.95,-320.49"/>
<polygon fill="black" stroke="black" points="509.79,-317.09 499.23,-318.04 508.07,-323.88 509.79,-317.09"/>
</g>
<!-- :location&#45;details&#45;&gt;:episode&#45;all -->
<g id="edge67" class="edge">
<title>:location&#45;details&#45;&gt;:episode&#45;all</title>
<path fill="none" stroke="black" stroke-dasharray="1,5" d="M750.44,-360.05C755.04,-351.8 760.67,-341.7 765.77,-332.54"/>
<polygon fill="black" stroke="black" points="768.84,-334.23 770.65,-323.79 762.72,-330.82 768.84,-334.23"/>
</g>
<!-- :location&#45;favorite&#45;&gt;:common&#45;util -->
<g id="edge69" class="edge">
<title>:location&#45;favorite&#45;&gt;:common&#45;util</title>
<path fill="none" stroke="black" stroke-dasharray="1,5" d="M974.33,-367.79C1047.56,-356.72 1158.92,-337.92 1173,-324 1201.76,-295.56 1192,-275.45 1192,-235 1192,-235 1192,-235 1192,-161 1192,-118.16 1189.36,-97.58 1155,-72 1120.51,-46.32 848.43,-29.29 715.54,-22.43"/>
<polygon fill="black" stroke="black" points="715.61,-18.93 705.45,-21.91 715.25,-25.92 715.61,-18.93"/>
</g>
<!-- :location&#45;favorite&#45;&gt;:common&#45;ui -->
<g id="edge70" class="edge">
<title>:location&#45;favorite&#45;&gt;:common&#45;ui</title>
<path fill="none" stroke="black" stroke-dasharray="1,5" d="M910.8,-359.87C911.39,-328.27 908.48,-260.02 876,-216 865.21,-201.38 849.07,-189.86 833.74,-181.35"/>
<polygon fill="black" stroke="black" points="835.34,-178.24 824.86,-176.69 832.08,-184.44 835.34,-178.24"/>
</g>
<!-- :location&#45;favorite&#45;&gt;:location&#45;all -->
<g id="edge68" class="edge">
<title>:location&#45;favorite&#45;&gt;:location&#45;all</title>
<path fill="none" stroke="black" d="M853.95,-365.42C843.68,-363.48 833.03,-361.58 823,-360 690.34,-339.11 655.02,-348.56 523,-324 518.04,-323.08 512.9,-322 507.78,-320.84"/>
<polygon fill="black" stroke="black" points="508.53,-317.42 497.99,-318.54 506.92,-324.24 508.53,-317.42"/>
</g>
<!-- :common&#45;test -->
<g id="node24" class="node">
<title>:common&#45;test</title>
<polygon fill="#66bb6a" stroke="black" points="1100.49,-468 1007.51,-468 1007.51,-432 1100.49,-432 1100.49,-468"/>
<text text-anchor="middle" x="1054" y="-445.8" font-family="Times,serif" font-size="14.00">:common&#45;test</text>
</g>
</g>
</svg>
